<svg xmlns="http://www.w3.org/2000/svg" viewBox="0 0 107 44.9"><defs><style>.cls-1,.cls-3{fill:none;stroke-linecap:round;stroke-linejoin:round;stroke-width:2px}.cls-1{stroke:#f1f3f7}.cls-2{fill:#f1f3f7}.cls-3{stroke:#3f55af}</style></defs><title>Digital Property Image</title><g id="Layer_2" data-name="Layer 2"><g id="Layer_1-2" data-name="Layer 1"><polyline points="26.25 19.28 26.25 12.9 29.86 12.9 20.25 5.3 10.64 12.9 14.25 12.9 14.25 19.03" class="cls-1"/><polyline points="18 18.91 18 14.9 22 14.9 22 19.28" class="cls-1"/><circle cx="48" cy="36.9" r="3" class="cls-1"/><line x1="45" x2="56" y1="13.9" y2="13.9" class="cls-1"/><line x1="45" x2="64" y1="20.9" y2="20.9" class="cls-1"/><line x1="45" x2="64" y1="27.9" y2="27.9" class="cls-1"/><line x1="56" x2="64" y1="38.9" y2="38.9" class="cls-1"/><polygon points="66.9 10.8 62 5.91 62 5.91 62 5.91 40 5.91 40 44.91 69 44.91 69 12.9 66.9 10.8" class="cls-2"/><path d="M72,40.06c18.79,3.2,34-6.16,34-6.16" class="cls-1"/><path d="M4,22.9s14.39-4.2,33,1.8" class="cls-1"/><path d="M93,13.9a4,4,0,0,0-2.48.89,5,5,0,0,0-9.38,1,3,3,0,1,0,.51,3.51,5,5,0,0,0,8.09.9A4,4,0,1,0,93,13.9Z" class="cls-1"/><path d="M100.33,17.74A5.52,5.52,0,1,0,96,8a6.88,6.88,0,0,0-13,1.39A4.14,4.14,0,0,0,76,12.29a4.18,4.18,0,0,0,0,.52" class="cls-1"/><path d="M104,13.9" class="cls-1"/><circle cx="45" cy="33.9" r="3" class="cls-3"/><line x1="42" x2="53" y1="10.9" y2="10.9" class="cls-3"/><line x1="42" x2="61" y1="17.9" y2="17.9" class="cls-3"/><line x1="42" x2="61" y1="24.9" y2="24.9" class="cls-3"/><line x1="53" x2="61" y1="35.9" y2="35.9" class="cls-3"/><polygon points="66 9.9 59 9.9 59 2.9 66 9.9" class="cls-3"/><polyline points="66 26.03 66 9.9 63.9 7.8 59 2.9 59 2.9 59 2.9 37 2.9 37 41.91 66 41.91 66 34.16" class="cls-3"/><line x1="66" x2="66" y1="30.53" y2="29.15" class="cls-3"/><path d="M95.63,34.3A45.22,45.22,0,0,0,103,30.9" class="cls-3"/><path d="M69,37.06a51.53,51.53,0,0,0,24-1.88" class="cls-3"/><path d="M1,19.9s14.39-4.2,33,1.8" class="cls-3"/><path d="M90,10.9a4,4,0,0,0-2.48.89,5,5,0,0,0-9.38,1,3,3,0,1,0,.51,3.51,5,5,0,0,0,8.09.9A4,4,0,1,0,90,10.9Z" class="cls-3"/><path d="M102,9.79q0-.25,0-.5A5.49,5.49,0,0,0,93,5a6.88,6.88,0,0,0-13,1.39A4.14,4.14,0,0,0,73,9.29a4.18,4.18,0,0,0,0,.52" class="cls-3"/><path d="M97.33,14.74a5.52,5.52,0,0,0,3.49-2.06" class="cls-3"/><polyline points="23.25 16.28 23.25 9.9 26.86 9.9 17.25 2.3 7.64 9.9 11.25 9.9 11.25 16.03" class="cls-3"/><polyline points="15 15.9 15 11.9 19 11.9 19 16.28" class="cls-3"/></g></g></svg>