<svg xmlns="http://www.w3.org/2000/svg" viewBox="0 0 53.41 40.72"><defs><style>.cls-1{fill:#f1f3f7}.cls-2{fill:none;stroke:#3f55af;stroke-linecap:round;stroke-linejoin:round;stroke-width:2px}</style></defs><title>Basic Sample Image</title><g id="Layer_2" data-name="Layer 2"><g id="Layer_1-2" data-name="Layer 1"><line x1="21.43" x2="28.53" y1="10.58" y2="10.08" class="cls-1"/><line x1="21.75" x2="34.01" y1="15.1" y2="14.24" class="cls-1"/><line x1="22.07" x2="34.33" y1="19.62" y2="18.75" class="cls-1"/><line x1="22.39" x2="34.65" y1="24.14" y2="23.27" class="cls-1"/><polygon points="36.83 8.2 32.31 8.52 31.99 4 36.83 8.2" class="cls-1"/><polygon points="35.38 6.94 31.99 4 31.99 4 31.99 4 17.79 5 19.57 30.17 38.28 28.85 36.83 8.2 35.38 6.94" class="cls-1"/><line x1="40.37" x2="45.98" y1="14.79" y2="19.17" class="cls-1"/><line x1="37.58" x2="47.28" y1="18.36" y2="25.92" class="cls-1"/><line x1="34.8" x2="44.49" y1="21.93" y2="29.49" class="cls-1"/><line x1="32.01" x2="41.71" y1="25.5" y2="33.06" class="cls-1"/><polygon points="53.41 23.32 49.84 20.53 52.62 16.96 53.41 23.32" class="cls-1"/><polygon points="53.17 21.41 52.62 16.96 52.62 16.96 52.62 16.96 41.4 8.21 25.88 28.11 40.68 39.65 53.41 23.32 53.17 21.41" class="cls-1"/><line x1="9.26" x2="15.81" y1="21.6" y2="18.8" class="cls-1"/><line x1="11.04" x2="22.35" y1="25.76" y2="20.93" class="cls-1"/><line x1="12.83" x2="24.13" y1="29.93" y2="25.09" class="cls-1"/><line x1="14.61" x2="25.91" y1="34.09" y2="29.26" class="cls-1"/><polygon points="23.03 14.3 18.87 16.08 17.09 11.92 23.03 14.3" class="cls-1"/><polygon points="21.25 13.59 17.09 11.92 17.09 11.92 17.09 11.92 4 17.52 13.92 40.72 31.17 33.34 23.03 14.3 21.25 13.59" class="cls-1"/><line x1="18.43" x2="25.53" y1="7.58" y2="7.08" class="cls-2"/><line x1="22.98" x2="30.01" y1="11.8" y2="11.31" class="cls-2"/><line x1="25.01" x2="26.38" y1="16.2" y2="16.1" class="cls-2"/><polygon points="33.83 5.2 29.31 5.52 28.99 1 33.83 5.2" class="cls-2"/><polyline points="33.93 6.67 33.83 5.2 32.38 3.94 28.99 1 28.99 1 28.99 1 14.79 2 15.13 6.79" class="cls-2"/><line x1="37.37" x2="42.98" y1="11.79" y2="16.17" class="cls-2"/><line x1="34.58" x2="44.28" y1="15.36" y2="22.92" class="cls-2"/><line x1="40.22" x2="41.49" y1="25.5" y2="26.49" class="cls-2"/><line x1="31.8" x2="38.16" y1="18.93" y2="23.9" class="cls-2"/><line x1="29.01" x2="35.45" y1="22.5" y2="27.53" class="cls-2"/><polygon points="50.41 20.32 46.84 17.53 49.62 13.96 50.41 20.32" class="cls-2"/><polyline points="45.26 26.93 50.41 20.32 50.17 18.41 49.62 13.96 49.62 13.96 49.62 13.96 38.4 5.21 26.61 20.32" class="cls-2"/><line x1="42.43" x2="43.44" y1="30.55" y2="29.26" class="cls-2"/><polyline points="30.55 31.09 37.68 36.65 40.64 32.85" class="cls-2"/><line x1="6.26" x2="12.81" y1="18.6" y2="15.8" class="cls-2"/><line x1="8.04" x2="19.35" y1="22.76" y2="17.93" class="cls-2"/><line x1="9.83" x2="21.13" y1="26.93" y2="22.09" class="cls-2"/><line x1="17.09" x2="18.94" y1="28.75" y2="27.96" class="cls-2"/><line x1="11.61" x2="14.83" y1="31.09" y2="29.71" class="cls-2"/><polygon points="20.03 11.3 15.87 13.08 14.09 8.92 20.03 11.3" class="cls-2"/><polyline points="23.57 32.31 28.17 30.34 20.03 11.3 18.25 10.59 14.09 8.92 14.09 8.92 14.09 8.92 1 14.52 10.92 37.72 21.13 33.35" class="cls-2"/></g></g></svg>