<svg xmlns="http://www.w3.org/2000/svg" viewBox="0 0 74.1 64.99"><defs><style>.cls-1,.cls-2{fill:#f6f8fa}.cls-1,.cls-3{fill-rule:evenodd}.cls-3,.cls-4{fill:none;stroke:#322f91;stroke-linecap:round;stroke-miterlimit:10;stroke-width:2px}</style></defs><title>Asset 17</title><g id="Layer_2" data-name="Layer 2"><g id="Layer_1-2" data-name="Layer 1"><path d="M38.15,22,29.74,23.5a2.88,2.88,0,0,1-3.46-2.12L24.77,13a2.43,2.43,0,0,1,0-.61" class="cls-1"/><line x1="38.84" x2="26.73" y1="21.03" y2="12.16" class="cls-2"/><path d="M8.05,32.8,5.28,17.92A1.91,1.91,0,0,1,6.82,15.7l19-3.43" class="cls-1"/><line x1="38.89" x2="40.97" y1="21.39" y2="32.95" class="cls-2"/><path d="M33.91,20,25.5,21.51A2.88,2.88,0,0,1,22,19.39L20.52,11a2.43,2.43,0,0,1,0-.61" class="cls-3"/><line x1="34.59" x2="22.48" y1="19.04" y2="10.17" class="cls-4"/><path d="M3.81,30.81,1,15.93a1.91,1.91,0,0,1,1.54-2.22l19-3.43" class="cls-3"/><path d="M43.16,33.46H54.48a2.18,2.18,0,0,1,2.18,2.18V62.81A2.18,2.18,0,0,1,54.48,65H6.22A2.18,2.18,0,0,1,4,62.81V35.65a2.18,2.18,0,0,1,2.18-2.18H43.16" class="cls-2"/><line x1="54.39" x2="51.67" y1="33.13" y2="30.4" class="cls-2"/><path d="M29.25,10.06a1.75,1.75,0,0,1,2.42.33l10.5,10.5.54.54" class="cls-2"/><path d="M40.37,38.53" class="cls-3"/><line x1="34.64" x2="36.73" y1="19.4" y2="30.97" class="cls-4"/><path d="M40.88,31.23H52.2a2.18,2.18,0,0,1,2.18,2.18V60.57a2.18,2.18,0,0,1-2.18,2.18H3.94a2.18,2.18,0,0,1-2.18-2.18V33.41a2.18,2.18,0,0,1,2.18-2.18H40.88" class="cls-4"/><line x1="51.88" x2="46.47" y1="24.8" y2="26" class="cls-2"/><line x1="52.87" x2="54.73" y1="23.95" y2="22.1" class="cls-2"/><path d="M54.73,22.1,71.33,5.56a.85.85,0,0,0,0-1.21l-3.2-3.21a.85.85,0,0,0-1.21,0L47.74,20.25a.85.85,0,0,0,0,1.21l3.2,3.21a.85.85,0,0,0,1.21,0l.72-.72" class="cls-2"/><ellipse cx="66.01" cy="6.51" class="cls-2" ry="3.19" transform="translate(14.65 48.48) rotate(-44.88)"/><line x1="47.65" x2="46.3" y1="20.39" y2="26.02" class="cls-2"/><line x1="71.01" x2="74.1" y1="4.03" y2="7.13" class="cls-2"/><line x1="74.1" x2="67.69" y1="7.13" y2="13.52" class="cls-2"/><path d="M7,35.37,27,53.22a1.76,1.76,0,0,0,2.35,0L49.13,35.47" class="cls-4"/><path d="M47.55,26.33" class="cls-4"/><line x1="52.11" x2="49.38" y1="30.89" y2="28.17" class="cls-4"/><line x1="6.8" x2="18.98" y1="57.6" y2="46.7" class="cls-4"/><path d="M28.36,38.79" class="cls-4"/><line x1="49.38" x2="37.19" y1="57.6" y2="46.8" class="cls-4"/><line x1="48.07" x2="42.66" y1="24.91" y2="26.11" class="cls-4"/><line x1="49.06" x2="50.92" y1="24.06" y2="22.21" class="cls-4"/><path d="M50.92,22.21,67.52,5.67a.85.85,0,0,0,0-1.21l-3.2-3.21a.85.85,0,0,0-1.21,0L43.93,20.36a.85.85,0,0,0,0,1.21l3.2,3.21a.85.85,0,0,0,1.21,0l.72-.72" class="cls-4"/><ellipse cx="62.2" cy="6.62" class="cls-4" ry="3.19" transform="translate(13.46 45.82) rotate(-44.88)"/><line x1="43.84" x2="42.49" y1="20.5" y2="26.13" class="cls-4"/><line x1="67.2" x2="70.29" y1="4.14" y2="7.25" class="cls-4"/><line x1="70.29" x2="63.88" y1="7.25" y2="13.63" class="cls-4"/><path d="M43.05,21.84" class="cls-4"/><path d="M27,7.82a1.75,1.75,0,0,1,2.42.33l10.5,10.5.54.54" class="cls-4"/></g></g></svg>