<svg xmlns="http://www.w3.org/2000/svg" viewBox="0 0 136.99 83.01"><defs><style>.cls-1{fill:#f0f2f6}.cls-2,.cls-4{fill:none;stroke-linecap:round;stroke-miterlimit:10;stroke-width:2px}.cls-2{stroke:#4359a4}.cls-3{fill:#4256a5}.cls-4{stroke:#4256a5}</style></defs><title>Asset 26</title><g id="Layer_2" data-name="Layer 2"><g id="Layer_1-2" data-name="Layer 1"><path d="M64.11,20.78H79.35a.7.7,0,0,1,.61.39l7.49,14.19a.81.81,0,0,1-.61,1.22H64.57" class="cls-1 bSNjpgOR_0"/><path d="M67.62,20.78H52.85a1.53,1.53,0,0,0-1.33.86L45,33.92a1.77,1.77,0,0,0,1.33,2.67H67.15" class="cls-1 bSNjpgOR_1"/><path d="M40.28,41.28H55.52a.7.7,0,0,1,.61.39l7.49,14.19A.81.81,0,0,1,63,57.09H40.75" class="cls-1 bSNjpgOR_2"/><path d="M43.79,41.28H29a1.53,1.53,0,0,0-1.33.86L21.21,54.42a1.77,1.77,0,0,0,1.33,2.67H43.32" class="cls-1 bSNjpgOR_3"/><path d="M89.7,41.78h15.24a.7.7,0,0,1,.61.39L113,56.37a.81.81,0,0,1-.61,1.22H90.16" class="cls-1 bSNjpgOR_4"/><path d="M93.21,41.78H78.44a1.53,1.53,0,0,0-1.33.86L70.62,54.92A1.77,1.77,0,0,0,72,57.59H92.74" class="cls-1 bSNjpgOR_5"/><path d="M76.26,18.28h2.2a.7.7,0,0,1,.61.39l7.49,14.19A.81.81,0,0,1,86,34.09H63.69" class="cls-2 bSNjpgOR_6"/><path d="M66.74,18.28L69.86,18.28" class="cls-2 bSNjpgOR_7"/><path d="M63.22,18.28L66.74,18.28" class="cls-2 bSNjpgOR_8"/><path d="M66.73,18.28H52a1.53,1.53,0,0,0-1.33.86L44.15,31.42a1.77,1.77,0,0,0,1.33,2.67H66.27" class="cls-2 bSNjpgOR_9"/><path d="M39,38.8h14.9a1.3,1.3,0,0,1,1.13.73l6.77,12.81a1.51,1.51,0,0,1-1.13,2.27H39.5" class="cls-2 bSNjpgOR_10"/><path d="M28.01,54.61L42.08,54.61" class="cls-2 bSNjpgOR_11"/><path d="M42.55,38.8H28.13A2.12,2.12,0,0,0,26.27,40L20.51,50.9c-.86,1.63.18,3.71,1.85,3.71h1.75" class="cls-2 bSNjpgOR_12"/><path d="M88.33,38.8h15.24a.7.7,0,0,1,.61.39l7.49,14.19a.81.81,0,0,1-.61,1.22H88.79" class="cls-2 bSNjpgOR_13"/><path d="M86.31,54.61L91.37,54.61" class="cls-2 bSNjpgOR_14"/><path d="M86,54.5" class="cls-2 bSNjpgOR_15"/><path d="M81.51,54.61" class="cls-2 bSNjpgOR_16"/><path d="M79.24,54.64L82.74,54.61" class="cls-2 bSNjpgOR_17"/><path d="M77.1,54.61" class="cls-2 bSNjpgOR_18"/><path d="M75,54.61" class="cls-2 bSNjpgOR_19"/><path d="M91.84,38.8H77.08a1.53,1.53,0,0,0-1.33.86L69.25,51.94a1.77,1.77,0,0,0,1.33,2.67H75" class="cls-2 bSNjpgOR_20"/><path d="M1,74.38L7.06,67.51" class="cls-2 bSNjpgOR_21"/><path d="M7.06,67.51L13.68,75.01" class="cls-2 bSNjpgOR_22"/><path d="M111.62,13.01L118.24,20.51" class="cls-2 bSNjpgOR_23"/><path d="M13.68,75.01L26.99,59.93" class="cls-2 bSNjpgOR_24"/><path d="M118.69,20.26L128.59,8.75" class="cls-2 bSNjpgOR_25"/><path d="M95.31,31.35L111.34,13.18" class="cls-2 bSNjpgOR_26"/><path d="M111.56,12.18L117.73,19.18" class="cls-3 bSNjpgOR_27"/><path d="M135.03,2.06L131.72,9.85L127.06,5.91L135.03,2.06Z" class="cls-4 bSNjpgOR_28"/><path d="M0.56,82.38L6.62,75.51" class="cls-1 bSNjpgOR_29"/><path d="M6.62,75.51L13.24,83.01" class="cls-1 bSNjpgOR_30"/><path d="M111.18,21.01L117.8,28.51" class="cls-1 bSNjpgOR_31"/><path d="M13.24,83.01L26.55,67.93" class="cls-1 bSNjpgOR_32"/><path d="M118.25,28.26L128.15,16.75" class="cls-1 bSNjpgOR_33"/><path d="M94.86,39.35L110.9,21.18" class="cls-1 bSNjpgOR_34"/><path d="M111.12,20.18L117.29,27.18" class="cls-1 bSNjpgOR_35"/><path d="M133.53,11.06L130.22,18.85L125.56,14.91L133.53,11.06Z" class="cls-1 bSNjpgOR_36"/></g></g><style>@keyframes bSNjpgOR_fade{0%,94.44444444444444%{stroke-opacity:1}}.bSNjpgOR_0{stroke-dasharray:56 58;stroke-dashoffset:57;animation:bSNjpgOR_draw 2000ms linear 0ms forwards}.bSNjpgOR_1{stroke-dasharray:55 57;stroke-dashoffset:56;animation:bSNjpgOR_draw 2000ms linear 27ms forwards}.bSNjpgOR_2{stroke-dasharray:56 58;stroke-dashoffset:57;animation:bSNjpgOR_draw 2000ms linear 55ms forwards}.bSNjpgOR_3{stroke-dasharray:55 57;stroke-dashoffset:56;animation:bSNjpgOR_draw 2000ms linear 83ms forwards}.bSNjpgOR_4{stroke-dasharray:56 58;stroke-dashoffset:57;animation:bSNjpgOR_draw 2000ms linear 111ms forwards}.bSNjpgOR_5{stroke-dasharray:55 57;stroke-dashoffset:56;animation:bSNjpgOR_draw 2000ms linear 138ms forwards}.bSNjpgOR_6{stroke-dasharray:43 45;stroke-dashoffset:44;animation:bSNjpgOR_draw 2000ms linear 166ms forwards}.bSNjpgOR_7,.bSNjpgOR_8{stroke-dasharray:4 6;stroke-dashoffset:5;animation:bSNjpgOR_draw 2000ms linear 194ms forwards}.bSNjpgOR_8{animation:bSNjpgOR_draw 2000ms linear 222ms forwards}.bSNjpgOR_10,.bSNjpgOR_9{stroke-dasharray:55 57;stroke-dashoffset:56}.bSNjpgOR_9{animation:bSNjpgOR_draw 2000ms linear 250ms forwards}.bSNjpgOR_10{animation:bSNjpgOR_draw 2000ms linear 277ms forwards}.bSNjpgOR_11{stroke-dasharray:15 17;stroke-dashoffset:16;animation:bSNjpgOR_draw 2000ms linear 305ms forwards}.bSNjpgOR_12{stroke-dasharray:36 38;stroke-dashoffset:37;animation:bSNjpgOR_draw 2000ms linear 333ms forwards}.bSNjpgOR_13{stroke-dasharray:56 58;stroke-dashoffset:57;animation:bSNjpgOR_draw 2000ms linear 361ms forwards}.bSNjpgOR_14{stroke-dasharray:6 8;stroke-dashoffset:7;animation:bSNjpgOR_draw 2000ms linear 388ms forwards}.bSNjpgOR_15,.bSNjpgOR_16{stroke-dasharray:0 2;stroke-dashoffset:1;animation:bSNjpgOR_draw 2000ms linear 416ms forwards}.bSNjpgOR_16{animation:bSNjpgOR_draw 2000ms linear 444ms forwards}.bSNjpgOR_17{stroke-dasharray:4 6;stroke-dashoffset:5;animation:bSNjpgOR_draw 2000ms linear 472ms forwards}.bSNjpgOR_18,.bSNjpgOR_19{stroke-dasharray:0 2;stroke-dashoffset:1;animation:bSNjpgOR_draw 2000ms linear 500ms forwards}.bSNjpgOR_19{animation:bSNjpgOR_draw 2000ms linear 527ms forwards}.bSNjpgOR_20{stroke-dasharray:39 41;stroke-dashoffset:40;animation:bSNjpgOR_draw 2000ms linear 555ms forwards}.bSNjpgOR_21{stroke-dasharray:10 12;stroke-dashoffset:11;animation:bSNjpgOR_draw 2000ms linear 583ms forwards}.bSNjpgOR_22,.bSNjpgOR_23{stroke-dasharray:11 13;stroke-dashoffset:12;animation:bSNjpgOR_draw 2000ms linear 611ms forwards}.bSNjpgOR_23{animation:bSNjpgOR_draw 2000ms linear 638ms forwards}.bSNjpgOR_24{stroke-dasharray:21 23;stroke-dashoffset:22;animation:bSNjpgOR_draw 2000ms linear 666ms forwards}.bSNjpgOR_25{stroke-dasharray:16 18;stroke-dashoffset:17;animation:bSNjpgOR_draw 2000ms linear 694ms forwards}.bSNjpgOR_26{stroke-dasharray:25 27;stroke-dashoffset:26;animation:bSNjpgOR_draw 2000ms linear 722ms forwards}.bSNjpgOR_27{stroke-dasharray:10 12;stroke-dashoffset:11;animation:bSNjpgOR_draw 2000ms linear 750ms forwards}.bSNjpgOR_28{stroke-dasharray:24 26;stroke-dashoffset:25;animation:bSNjpgOR_draw 2000ms linear 777ms forwards}.bSNjpgOR_29{stroke-dasharray:10 12;stroke-dashoffset:11;animation:bSNjpgOR_draw 2000ms linear 805ms forwards}.bSNjpgOR_30,.bSNjpgOR_31{stroke-dasharray:11 13;stroke-dashoffset:12;animation:bSNjpgOR_draw 2000ms linear 833ms forwards}.bSNjpgOR_31{animation:bSNjpgOR_draw 2000ms linear 861ms forwards}.bSNjpgOR_32{stroke-dasharray:21 23;stroke-dashoffset:22;animation:bSNjpgOR_draw 2000ms linear 888ms forwards}.bSNjpgOR_33{stroke-dasharray:16 18;stroke-dashoffset:17;animation:bSNjpgOR_draw 2000ms linear 916ms forwards}.bSNjpgOR_34{stroke-dasharray:25 27;stroke-dashoffset:26;animation:bSNjpgOR_draw 2000ms linear 944ms forwards}.bSNjpgOR_35{stroke-dasharray:10 12;stroke-dashoffset:11;animation:bSNjpgOR_draw 2000ms linear 972ms forwards}.bSNjpgOR_36{stroke-dasharray:24 26;stroke-dashoffset:25;animation:bSNjpgOR_draw 2000ms linear 1000ms forwards}</style></svg>