<svg xmlns="http://www.w3.org/2000/svg" viewBox="0 0 136.99 83.01"><defs><style>.cls-1{fill:#f0f2f6}.cls-2,.cls-4{fill:none;stroke-linecap:round;stroke-miterlimit:10;stroke-width:2px}.cls-2{stroke:#4359a4}.cls-3{fill:#4256a5}.cls-4{stroke:#4256a5}</style></defs><title>Asset 26</title><g id="Layer_2" data-name="Layer 2"><g id="Layer_1-2" data-name="Layer 1"><path d="M64.11,20.78H79.35a.7.7,0,0,1,.61.39l7.49,14.19a.81.81,0,0,1-.61,1.22H64.57" class="cls-1"/><path d="M67.62,20.78H52.85a1.53,1.53,0,0,0-1.33.86L45,33.92a1.77,1.77,0,0,0,1.33,2.67H67.15" class="cls-1"/><path d="M40.28,41.28H55.52a.7.7,0,0,1,.61.39l7.49,14.19A.81.81,0,0,1,63,57.09H40.75" class="cls-1"/><path d="M43.79,41.28H29a1.53,1.53,0,0,0-1.33.86L21.21,54.42a1.77,1.77,0,0,0,1.33,2.67H43.32" class="cls-1"/><path d="M89.7,41.78h15.24a.7.7,0,0,1,.61.39L113,56.37a.81.81,0,0,1-.61,1.22H90.16" class="cls-1"/><path d="M93.21,41.78H78.44a1.53,1.53,0,0,0-1.33.86L70.62,54.92A1.77,1.77,0,0,0,72,57.59H92.74" class="cls-1"/><path d="M76.26,18.28h2.2a.7.7,0,0,1,.61.39l7.49,14.19A.81.81,0,0,1,86,34.09H63.69" class="cls-2"/><line x1="66.74" x2="69.86" y1="18.28" y2="18.28" class="cls-2"/><line x1="63.22" x2="66.74" y1="18.28" y2="18.28" class="cls-2"/><path d="M66.73,18.28H52a1.53,1.53,0,0,0-1.33.86L44.15,31.42a1.77,1.77,0,0,0,1.33,2.67H66.27" class="cls-2"/><path d="M39,38.8h14.9a1.3,1.3,0,0,1,1.13.73l6.77,12.81a1.51,1.51,0,0,1-1.13,2.27H39.5" class="cls-2"/><line x1="28.01" x2="42.08" y1="54.61" y2="54.61" class="cls-2"/><path d="M42.55,38.8H28.13A2.12,2.12,0,0,0,26.27,40L20.51,50.9c-.86,1.63.18,3.71,1.85,3.71h1.75" class="cls-2"/><path d="M88.33,38.8h15.24a.7.7,0,0,1,.61.39l7.49,14.19a.81.81,0,0,1-.61,1.22H88.79" class="cls-2"/><line x1="86.31" x2="91.37" y1="54.61" y2="54.61" class="cls-2"/><path d="M86,54.5" class="cls-2"/><path d="M81.51,54.61" class="cls-2"/><line x1="79.24" x2="82.74" y1="54.64" y2="54.61" class="cls-2"/><path d="M77.1,54.61" class="cls-2"/><path d="M75,54.61" class="cls-2"/><path d="M91.84,38.8H77.08a1.53,1.53,0,0,0-1.33.86L69.25,51.94a1.77,1.77,0,0,0,1.33,2.67H75" class="cls-2"/><line x1="1" x2="7.06" y1="74.38" y2="67.51" class="cls-2"/><line x1="7.06" x2="13.68" y1="67.51" y2="75.01" class="cls-2"/><line x1="111.62" x2="118.24" y1="13.01" y2="20.51" class="cls-2"/><line x1="13.68" x2="26.99" y1="75.01" y2="59.93" class="cls-2"/><line x1="118.69" x2="128.59" y1="20.26" y2="8.75" class="cls-2"/><line x1="95.31" x2="111.34" y1="31.35" y2="13.18" class="cls-2"/><line x1="111.56" x2="117.73" y1="12.18" y2="19.18" class="cls-3"/><polygon points="135.03 2.06 131.72 9.85 127.06 5.91 135.03 2.06" class="cls-4"/><line x1=".56" x2="6.62" y1="82.38" y2="75.51" class="cls-1"/><line x1="6.62" x2="13.24" y1="75.51" y2="83.01" class="cls-1"/><line x1="111.18" x2="117.8" y1="21.01" y2="28.51" class="cls-1"/><line x1="13.24" x2="26.55" y1="83.01" y2="67.93" class="cls-1"/><line x1="118.25" x2="128.15" y1="28.26" y2="16.75" class="cls-1"/><line x1="94.86" x2="110.9" y1="39.35" y2="21.18" class="cls-1"/><line x1="111.12" x2="117.29" y1="20.18" y2="27.18" class="cls-1"/><polygon points="133.53 11.06 130.22 18.85 125.56 14.91 133.53 11.06" class="cls-1"/></g></g></svg>